<?xml version="1.0" standalone="no"?>
<!DOCTYPE svg PUBLIC "-//W3C//DTD SVG 20010904//EN"
 "http://www.w3.org/TR/2001/REC-SVG-20010904/DTD/svg10.dtd">
<svg version="1.0" xmlns="http://www.w3.org/2000/svg"
 width="1024.000000pt" height="1536.000000pt" viewBox="0 0 1024.000000 1536.000000"
 preserveAspectRatio="xMidYMid meet">

<g transform="translate(0.000000,1536.000000) scale(0.100000,-0.100000)"
fill="#000000" stroke="none">
<path d="M5188 15135 c-307 -50 -756 -233 -1063 -433 -309 -201 -520 -423
-835 -877 -136 -197 -234 -333 -346 -480 -168 -222 -252 -362 -290 -490 -29
-92 -26 -290 5 -367 36 -93 99 -167 252 -298 79 -67 272 -252 429 -411 289
-292 383 -377 455 -410 41 -19 85 -25 85 -11 0 4 -37 48 -82 97 -46 50 -105
117 -133 150 -208 249 -377 437 -569 633 -238 244 -271 289 -282 388 -12 95
31 231 110 354 24 36 139 193 257 350 118 157 247 330 287 385 362 502 638
753 1077 980 67 34 170 81 229 104 430 168 744 187 1076 64 134 -49 401 -182
630 -313 369 -211 656 -344 1085 -500 318 -116 422 -170 533 -278 163 -160
213 -294 247 -652 20 -222 56 -356 154 -573 91 -202 98 -367 24 -510 -40 -76
-142 -186 -331 -356 -51 -46 -152 -155 -224 -243 -189 -231 -248 -288 -370
-354 -59 -31 -61 -34 -32 -34 48 0 153 35 209 71 67 42 135 100 289 247 72 68
198 174 281 237 219 164 323 282 383 432 25 63 27 79 27 218 l0 150 -52 150
c-88 258 -116 381 -133 602 -15 186 -35 296 -71 401 -70 199 -178 343 -356
474 -99 73 -240 139 -515 242 -442 165 -644 259 -1133 526 -336 183 -564 279
-775 325 -104 23 -415 29 -532 10z"/>
<path d="M5440 14663 c-45 -262 -63 -564 -58 -1009 l3 -340 -75 -13 c-41 -7
-94 -15 -117 -18 l-43 -6 0 35 c0 57 -30 266 -55 392 -34 161 -84 306 -159
461 -58 118 -182 312 -193 301 -3 -3 18 -66 46 -140 119 -314 185 -654 193
-985 l3 -114 -55 -14 c-132 -32 -371 -97 -445 -120 -95 -30 -86 -31 -356 57
-200 66 -349 134 -467 213 l-81 54 14 -33 c54 -131 193 -247 424 -357 69 -32
128 -61 130 -63 2 -2 -19 -28 -47 -58 -28 -30 -62 -75 -74 -101 l-23 -46 -45
5 c-268 33 -468 63 -633 96 -109 22 -204 40 -210 40 -18 0 69 -56 154 -100
145 -74 390 -144 632 -181 62 -9 77 -15 77 -29 0 -10 -6 -22 -12 -28 -13 -10
-316 -87 -470 -119 -49 -9 -88 -21 -88 -24 0 -13 176 -39 265 -39 82 0 194 12
249 26 l21 5 0 -303 c0 -332 6 -381 63 -526 l29 -73 6 263 c12 480 57 789 140
958 27 55 40 70 87 98 138 82 813 257 1225 317 529 78 867 54 1140 -81 217
-106 357 -264 506 -567 113 -233 174 -454 186 -686 l6 -124 -78 82 c-90 94
-160 143 -300 210 -177 85 -385 144 -650 183 -126 19 -190 23 -405 22 -349 -1
-591 -33 -888 -119 -386 -110 -652 -264 -807 -465 -46 -60 -97 -154 -89 -163
4 -3 -14 -11 -37 -17 -68 -19 -111 -44 -156 -93 -89 -97 -113 -194 -88 -355
35 -214 111 -448 198 -601 51 -91 130 -175 189 -200 42 -18 43 -19 56 -87 7
-38 29 -116 48 -174 l36 -105 -6 -140 c-5 -128 -19 -246 -47 -382 -9 -44 -14
-53 -40 -62 -58 -20 -142 -86 -185 -144 -51 -69 -84 -165 -84 -244 l0 -54
-142 -69 c-79 -37 -327 -155 -553 -260 -677 -318 -1430 -702 -1799 -919 -73
-42 -81 -51 -107 -106 -53 -112 -208 -622 -357 -1170 -137 -501 -356 -1398
-477 -1950 -48 -218 -109 -564 -101 -572 7 -7 36 53 94 192 150 357 282 793
577 1910 146 550 336 1205 405 1396 l31 86 277 156 c456 256 803 438 1392 731
316 157 756 370 791 384 4 2 22 -25 40 -59 106 -212 315 -371 627 -479 51 -18
91 -34 89 -37 -2 -2 -66 -8 -142 -14 -153 -11 -374 -2 -749 32 -121 10 -222
16 -225 13 -11 -11 -5 -1668 7 -2024 22 -634 68 -1422 102 -1744 5 -50 10
-101 10 -114 l0 -22 -182 6 c-101 4 -349 1 -551 -6 -202 -7 -370 -11 -372 -8
-2 2 1 21 6 43 17 66 23 359 10 490 -40 415 -209 1031 -436 1595 -147 364
-282 612 -408 745 l-56 60 60 -155 c244 -624 484 -1401 583 -1885 45 -222 65
-369 73 -535 5 -130 -10 -357 -25 -372 -4 -3 -88 -14 -187 -22 -653 -60 -1323
-215 -1670 -389 -242 -120 -402 -280 -421 -419 -8 -58 18 -158 56 -212 16 -24
59 -71 95 -104 l66 -60 -16 -79 c-25 -121 -30 -184 -29 -368 1 -277 59 -519
180 -760 235 -464 650 -818 1366 -1165 224 -108 442 -196 540 -216 215 -46
500 61 683 258 125 133 225 307 284 491 34 106 81 354 81 427 0 76 7 87 58
100 121 30 335 105 413 143 169 84 384 261 653 537 l159 163 141 22 c692 109
1207 303 1439 544 90 93 112 142 112 251 0 72 -4 94 -27 143 -115 245 -587
462 -1303 601 -289 56 -719 109 -1062 131 l-101 7 -6 47 c-13 105 -44 510 -61
786 -3 50 -10 162 -15 250 -32 526 -50 1248 -50 1993 l0 624 28 -6 c78 -15
468 -28 666 -23 258 7 355 17 566 59 139 27 167 30 269 24 168 -10 165 -9 184
-69 25 -78 76 -156 133 -203 29 -23 57 -43 64 -46 8 -2 5 -26 -12 -83 -20 -69
-23 -102 -22 -240 0 -189 14 -253 101 -465 76 -186 86 -240 85 -442 0 -96 3
-170 9 -174 27 -16 207 157 299 288 183 258 253 601 181 883 -23 88 -96 242
-140 296 l-29 34 29 57 c16 31 33 78 39 105 6 26 12 57 15 69 3 14 18 25 47
33 185 56 418 244 528 428 30 51 61 92 68 93 18 0 375 -154 685 -296 280 -129
670 -322 877 -434 286 -155 739 -420 759 -443 12 -15 43 -158 126 -576 189
-962 341 -1852 484 -2831 52 -355 128 -1017 147 -1274 4 -54 10 -92 14 -85 23
43 53 570 45 779 -12 294 -17 382 -36 575 -20 220 -25 262 -65 570 -24 188
-82 571 -110 735 -8 47 -28 164 -45 260 -96 560 -305 1621 -365 1853 -32 125
-33 126 -289 270 -411 230 -823 442 -1260 650 -215 102 -783 359 -879 398
l-58 24 5 40 c14 96 -35 271 -103 371 -31 47 -32 49 -15 74 69 105 218 458
304 721 123 379 169 605 262 1294 23 171 43 311 44 313 1 1 31 -4 66 -12 69
-15 179 -27 179 -20 0 2 -12 9 -27 15 -16 5 -70 33 -121 62 l-94 51 7 96 c15
210 -29 492 -122 783 -5 16 -3 16 38 -1 60 -26 232 -81 421 -136 216 -62 297
-90 378 -131 39 -19 70 -32 70 -27 0 10 -85 91 -130 124 -104 75 -281 157
-565 263 -212 79 -296 137 -397 274 -40 53 -40 54 -27 95 7 22 49 110 91 195
121 239 248 420 405 575 42 42 73 76 70 76 -17 0 -127 -62 -192 -108 -187
-132 -387 -368 -472 -558 -15 -35 -30 -64 -33 -64 -3 0 -35 28 -70 63 -113
109 -237 183 -403 238 -50 17 -93 32 -95 34 -1 1 11 51 27 110 42 146 60 248
71 390 10 131 -1 301 -22 338 -13 22 -13 22 -16 -8 -12 -120 -63 -328 -132
-535 -83 -248 -95 -274 -123 -266 -60 17 -386 18 -545 2 -90 -10 -170 -20
-177 -22 -17 -7 -20 39 -45 571 -22 458 -47 795 -60 808 -4 5 -13 -22 -20 -60z
m751 -2658 c421 -44 737 -156 910 -322 119 -114 156 -218 166 -463 14 -368
-72 -866 -229 -1330 -75 -219 -124 -341 -195 -485 -193 -387 -430 -612 -723
-686 -123 -31 -314 -24 -456 19 -301 88 -586 291 -819 582 -210 261 -374 582
-461 899 -45 167 -39 156 -70 128 -29 -27 -52 -26 -96 5 -100 69 -255 566
-234 747 12 101 59 146 153 145 l53 0 0 33 c0 68 68 198 151 288 194 210 646
383 1149 440 163 18 528 18 701 0z m-1654 -2543 c83 -147 417 -509 578 -628
188 -139 360 -226 534 -271 228 -58 506 -42 664 39 22 11 41 17 43 15 8 -8
-156 -175 -217 -221 l-58 -44 -82 24 c-159 46 -309 42 -429 -12 l-59 -26 -158
52 c-200 65 -300 107 -436 184 -134 75 -253 169 -334 266 -65 77 -143 215
-143 253 -1 33 64 407 70 407 3 0 15 -17 27 -38z m-197 -562 c154 -301 488
-520 977 -640 70 -18 140 -38 155 -46 36 -19 76 -89 84 -148 l7 -48 -44 6
c-24 4 -84 11 -134 17 -343 39 -675 152 -904 308 -92 63 -213 197 -255 282
-75 153 -70 277 15 373 l42 48 17 -54 c9 -29 27 -73 40 -98z m2481 -22 c8 -29
13 -96 13 -148 -2 -195 -96 -368 -275 -506 -57 -44 -206 -124 -231 -124 -8 0
-20 16 -27 35 -7 19 -27 57 -45 84 l-33 49 63 41 c85 56 246 215 326 322 35
48 91 136 123 197 33 60 63 108 66 106 4 -2 13 -28 20 -56z m-951 -648 c169
-25 236 -69 270 -177 11 -36 20 -82 20 -102 0 -55 -27 -136 -57 -172 -76 -90
-230 -90 -306 1 -41 48 -57 93 -78 214 -22 128 -33 166 -60 200 -22 28 -19 31
31 39 46 8 115 7 180 -3z m311 -741 c60 -120 81 -204 86 -339 8 -198 -39 -378
-144 -555 -40 -67 -48 -76 -51 -55 -10 87 -39 201 -78 305 -93 248 -105 402
-53 653 11 54 30 68 47 35 26 -50 92 -368 92 -441 0 -51 23 -26 44 46 26 93
30 214 12 320 -9 50 -16 97 -16 103 0 23 32 -15 61 -72z m-2320 -3559 c843
-30 1436 -114 1931 -276 516 -169 685 -354 490 -537 -139 -129 -462 -260 -839
-337 -322 -67 -689 -111 -1268 -151 -243 -17 -998 -18 -1235 -1 -1055 75
-1695 196 -2089 393 -172 86 -261 168 -261 239 1 158 299 325 797 449 563 140
1159 206 2069 229 56 2 238 -2 405 -8z m-2910 -1264 c249 -83 496 -139 859
-195 107 -16 223 -33 258 -37 51 -5 62 -10 58 -23 -19 -62 -38 -150 -53 -245
-24 -152 -24 -532 0 -701 47 -326 125 -586 245 -821 l47 -90 -150 61 c-340
140 -701 342 -935 524 -131 102 -327 302 -410 420 -88 123 -195 332 -233 452
-82 260 -103 543 -56 753 l11 52 98 -48 c53 -26 171 -72 261 -102z m1568 -276
c265 -30 574 -44 1017 -44 334 -1 457 -4 445 -12 -9 -6 -74 -43 -146 -83 -71
-41 -166 -98 -210 -129 -86 -59 -178 -133 -173 -138 5 -4 138 32 233 63 165
54 424 175 568 267 59 37 100 52 172 61 28 4 59 9 70 12 38 10 -275 -290 -422
-404 -196 -153 -582 -254 -1208 -317 -183 -19 -444 -36 -542 -36 l-73 0 0 143
c0 202 23 362 77 540 l26 87 41 0 c23 0 79 -4 125 -10z m825 -897 c-9 -82 -61
-349 -81 -408 -22 -69 -97 -218 -146 -289 -22 -33 -69 -88 -104 -123 -107
-105 -276 -174 -390 -157 -39 6 -45 11 -82 74 -95 160 -150 294 -201 495 -24
92 -70 358 -64 364 2 3 86 8 187 13 287 12 860 67 876 84 10 10 11 1 5 -53z"/>
<path d="M4195 7540 c-99 -31 -144 -159 -92 -260 31 -61 65 -83 134 -87 75 -5
126 23 161 87 20 37 23 55 19 103 -6 65 -21 94 -72 133 -39 29 -101 39 -150
24z"/>
<path d="M8967 6943 c-65 -178 -241 -704 -316 -948 -161 -523 -282 -1023 -376
-1550 -15 -82 -55 -376 -69 -500 -39 -354 -52 -697 -37 -985 18 -350 46 -548
112 -799 31 -116 67 -207 52 -131 -16 81 -6 1230 12 1355 2 17 7 71 10 120 12
185 67 644 101 850 8 50 22 135 30 190 42 270 133 677 334 1485 127 506 143
575 170 730 20 114 50 353 46 358 -2 1 -32 -78 -69 -175z"/>
<path d="M4205 6094 c-69 -36 -95 -79 -95 -159 0 -66 18 -104 63 -139 98 -75
240 -19 268 104 17 75 -23 160 -92 195 -37 19 -106 19 -144 -1z"/>
<path d="M4280 4697 c-63 -33 -93 -93 -87 -170 8 -95 70 -157 157 -157 99 0
162 62 168 166 4 57 1 69 -22 105 -30 44 -91 78 -142 79 -17 0 -50 -10 -74
-23z"/>
</g>
</svg>
